<?xml version="1.0" standalone="no"?>
<!DOCTYPE svg PUBLIC "-//W3C//DTD SVG 20010904//EN"
 "http://www.w3.org/TR/2001/REC-SVG-20010904/DTD/svg10.dtd">
<svg version="1.0" xmlns="http://www.w3.org/2000/svg"
 width="32.000000pt" height="32.000000pt" viewBox="0 0 32.000000 32.000000"
 preserveAspectRatio="xMidYMid meet">

<g transform="translate(0.000000,32.000000) scale(0.100000,-0.100000)"
fill="#000000" stroke="none">
<path d="M0 160 l0 -160 160 0 160 0 0 160 0 160 -160 0 -160 0 0 -160z m260
67 c0 -12 -17 -53 -38 -92 -29 -55 -42 -71 -62 -73 -23 -3 -30 6 -64 76 -44
91 -45 117 -1 117 24 0 33 -6 45 -32 16 -34 30 -43 30 -19 0 7 11 25 25 40 21
22 28 25 45 16 11 -6 20 -21 20 -33z"/>
</g>
</svg>
